<svg width="555" height="141" viewBox="0 0 555 141" fill="none" xmlns="http://www.w3.org/2000/svg">
<path d="M41.8594 0H42.4652C51.2502 0 59.4018 4.65686 63.8631 12.2411L70.5 23.5349L77.1369 12.2411C81.5982 4.65686 89.7498 0 98.5348 0H99.1406C112.525 0 123.375 10.8504 123.375 24.2344C123.375 28.2 122.411 31.6975 120.731 35.25H132.188C137.062 35.25 141 39.1881 141 44.0625V61.6875C141 66.5619 137.062 70.5 132.188 70.5H8.8125C3.94635 70.5 0 66.5619 0 61.6875V44.0625C0 39.1881 3.94635 35.25 8.8125 35.25H20.2687C18.5779 31.6975 17.625 28.2 17.625 24.2344C17.625 10.8504 28.4754 0 41.8594 0ZM52.4619 18.9414C50.3689 15.3971 46.5686 13.2188 42.4652 13.2188H41.8594C35.7732 13.2188 30.8438 18.151 30.8438 24.2344C30.8438 30.3205 35.7732 35.25 41.8594 35.25H62.0455L52.4619 18.9414ZM99.1406 13.2188H98.5348C94.4314 13.2188 90.6311 15.3971 88.5381 18.9414L78.9545 35.25H99.1406C105.227 35.25 110.156 30.3205 110.156 24.2344C110.156 18.151 105.227 13.2188 99.1406 13.2188ZM8.8125 79.3125H61.6875V141H22.0312C14.7306 141 8.8125 135.079 8.8125 127.781V79.3125ZM79.3125 141V79.3125H132.188V127.781C132.188 135.079 126.267 141 118.969 141H79.3125Z" fill="#27BEFF"/>
<path d="M237.25 75.4375V111.5C235.833 113.208 233.646 115.062 230.688 117.062C227.729 119.021 223.917 120.708 219.25 122.125C214.583 123.542 208.938 124.25 202.312 124.25C196.438 124.25 191.083 123.292 186.25 121.375C181.417 119.417 177.25 116.562 173.75 112.812C170.292 109.062 167.625 104.479 165.75 99.0625C163.875 93.6042 162.938 87.375 162.938 80.375V74.6875C162.938 67.6875 163.833 61.4583 165.625 56C167.458 50.5417 170.062 45.9375 173.438 42.1875C176.812 38.4375 180.833 35.5833 185.5 33.625C190.167 31.6667 195.354 30.6875 201.062 30.6875C208.979 30.6875 215.479 31.9792 220.562 34.5625C225.646 37.1042 229.521 40.6458 232.188 45.1875C234.896 49.6875 236.562 54.8542 237.188 60.6875H219C218.542 57.6042 217.667 54.9167 216.375 52.625C215.083 50.3333 213.229 48.5417 210.812 47.25C208.438 45.9583 205.354 45.3125 201.562 45.3125C198.438 45.3125 195.646 45.9583 193.188 47.25C190.771 48.5 188.729 50.3542 187.062 52.8125C185.396 55.2708 184.125 58.3125 183.25 61.9375C182.375 65.5625 181.938 69.7708 181.938 74.5625V80.375C181.938 85.125 182.396 89.3333 183.312 93C184.229 96.625 185.583 99.6875 187.375 102.188C189.208 104.646 191.458 106.5 194.125 107.75C196.792 109 199.896 109.625 203.438 109.625C206.396 109.625 208.854 109.375 210.812 108.875C212.812 108.375 214.417 107.771 215.625 107.062C216.875 106.312 217.833 105.604 218.5 104.938V88.8125H201.375V75.4375H237.25ZM270.25 55.375V123H252.188V55.375H270.25ZM251.062 37.75C251.062 35.125 251.979 32.9583 253.812 31.25C255.646 29.5417 258.104 28.6875 261.188 28.6875C264.229 28.6875 266.667 29.5417 268.5 31.25C270.375 32.9583 271.312 35.125 271.312 37.75C271.312 40.375 270.375 42.5417 268.5 44.25C266.667 45.9583 264.229 46.8125 261.188 46.8125C258.104 46.8125 255.646 45.9583 253.812 44.25C251.979 42.5417 251.062 40.375 251.062 37.75ZM308.062 123H289.938V49.375C289.938 44.25 290.938 39.9375 292.938 36.4375C294.979 32.8958 297.833 30.2292 301.5 28.4375C305.208 26.6042 309.604 25.6875 314.688 25.6875C316.354 25.6875 317.958 25.8125 319.5 26.0625C321.042 26.2708 322.542 26.5417 324 26.875L323.812 40.4375C323.021 40.2292 322.188 40.0833 321.312 40C320.438 39.9167 319.417 39.875 318.25 39.875C316.083 39.875 314.229 40.25 312.688 41C311.188 41.7083 310.042 42.7708 309.25 44.1875C308.458 45.6042 308.062 47.3333 308.062 49.375V123ZM321.562 55.375V68.125H279.875V55.375H321.562ZM364.125 55.375V68.125H324.75V55.375H364.125ZM334.5 38.6875H352.5V102.625C352.5 104.583 352.75 106.083 353.25 107.125C353.792 108.167 354.583 108.896 355.625 109.312C356.667 109.688 357.979 109.875 359.562 109.875C360.688 109.875 361.688 109.833 362.562 109.75C363.479 109.625 364.25 109.5 364.875 109.375L364.938 122.625C363.396 123.125 361.729 123.521 359.938 123.812C358.146 124.104 356.167 124.25 354 124.25C350.042 124.25 346.583 123.604 343.625 122.312C340.708 120.979 338.458 118.854 336.875 115.938C335.292 113.021 334.5 109.188 334.5 104.438V38.6875ZM384.062 32H399.938L423.312 98.8125L446.688 32H462.562L429.688 123H416.938L384.062 32ZM375.5 32H391.312L394.188 97.125V123H375.5V32ZM455.312 32H471.188V123H452.438V97.125L455.312 32ZM517.625 124.25C512.375 124.25 507.667 123.417 503.5 121.75C499.333 120.042 495.792 117.688 492.875 114.688C490 111.688 487.792 108.208 486.25 104.25C484.708 100.25 483.938 96 483.938 91.5V89C483.938 83.875 484.667 79.1875 486.125 74.9375C487.583 70.6875 489.667 67 492.375 63.875C495.125 60.75 498.458 58.3542 502.375 56.6875C506.292 54.9792 510.708 54.125 515.625 54.125C520.417 54.125 524.667 54.9167 528.375 56.5C532.083 58.0833 535.188 60.3333 537.688 63.25C540.229 66.1667 542.146 69.6667 543.438 73.75C544.729 77.7917 545.375 82.2917 545.375 87.25V94.75H491.625V82.75H527.688V81.375C527.688 78.875 527.229 76.6458 526.312 74.6875C525.438 72.6875 524.104 71.1042 522.312 69.9375C520.521 68.7708 518.229 68.1875 515.438 68.1875C513.062 68.1875 511.021 68.7083 509.312 69.75C507.604 70.7917 506.208 72.25 505.125 74.125C504.083 76 503.292 78.2083 502.75 80.75C502.25 83.25 502 86 502 89V91.5C502 94.2083 502.375 96.7083 503.125 99C503.917 101.292 505.021 103.271 506.438 104.938C507.896 106.604 509.646 107.896 511.688 108.812C513.771 109.729 516.125 110.188 518.75 110.188C522 110.188 525.021 109.562 527.812 108.312C530.646 107.021 533.083 105.083 535.125 102.5L543.875 112C542.458 114.042 540.521 116 538.062 117.875C535.646 119.75 532.729 121.292 529.312 122.5C525.896 123.667 522 124.25 517.625 124.25Z" fill="black"/>
</svg>
