<svg width="141" height="141" viewBox="0 0 141 141" fill="none" xmlns="http://www.w3.org/2000/svg">
<path d="M41.8594 0H42.4652C51.2502 0 59.4018 4.65686 63.8631 12.2411L70.5 23.5349L77.1369 12.2411C81.5982 4.65686 89.7498 0 98.5348 0H99.1406C112.525 0 123.375 10.8504 123.375 24.2344C123.375 28.2 122.411 31.6975 120.731 35.25H132.188C137.062 35.25 141 39.1881 141 44.0625V61.6875C141 66.5619 137.062 70.5 132.188 70.5H8.8125C3.94635 70.5 0 66.5619 0 61.6875V44.0625C0 39.1881 3.94635 35.25 8.8125 35.25H20.2687C18.5779 31.6975 17.625 28.2 17.625 24.2344C17.625 10.8504 28.4754 0 41.8594 0ZM52.4619 18.9414C50.3689 15.3971 46.5686 13.2188 42.4652 13.2188H41.8594C35.7732 13.2188 30.8438 18.151 30.8438 24.2344C30.8438 30.3205 35.7732 35.25 41.8594 35.25H62.0455L52.4619 18.9414ZM99.1406 13.2188H98.5348C94.4314 13.2188 90.6311 15.3971 88.5381 18.9414L78.9545 35.25H99.1406C105.227 35.25 110.156 30.3205 110.156 24.2344C110.156 18.151 105.227 13.2188 99.1406 13.2188ZM8.8125 79.3125H61.6875V141H22.0312C14.7306 141 8.8125 135.079 8.8125 127.781V79.3125ZM79.3125 141V79.3125H132.188V127.781C132.188 135.079 126.267 141 118.969 141H79.3125Z" fill="#27BEFF"/>
</svg>
