<svg width="61" height="71" viewBox="0 0 61 71" fill="none" xmlns="http://www.w3.org/2000/svg">
<path d="M4.71875 4.6875C3.47555 4.6875 2.28326 5.18136 1.40419 6.06044C0.52511 6.93951 0.03125 8.1318 0.03125 9.375V14.0625C0.03125 15.3057 0.52511 16.498 1.40419 17.3771C2.28326 18.2561 3.47555 18.75 4.71875 18.75H7.0625V60.9375C7.0625 63.4239 8.05022 65.8085 9.80837 67.5666C11.5665 69.3248 13.9511 70.3125 16.4375 70.3125H44.5625C47.0489 70.3125 49.4335 69.3248 51.1916 67.5666C52.9498 65.8085 53.9375 63.4239 53.9375 60.9375V18.75H56.2812C57.5245 18.75 58.7167 18.2561 59.5958 17.3771C60.4749 16.498 60.9688 15.3057 60.9688 14.0625V9.375C60.9688 8.1318 60.4749 6.93951 59.5958 6.06044C58.7167 5.18136 57.5245 4.6875 56.2812 4.6875H39.875C39.875 3.4443 39.3811 2.25201 38.5021 1.37294C37.623 0.49386 36.4307 0 35.1875 0L25.8125 0C24.5693 0 23.377 0.49386 22.4979 1.37294C21.6189 2.25201 21.125 3.4443 21.125 4.6875H4.71875ZM18.7812 23.4375C19.4029 23.4375 19.999 23.6844 20.4385 24.124C20.8781 24.5635 21.125 25.1596 21.125 25.7812V58.5938C21.125 59.2154 20.8781 59.8115 20.4385 60.251C19.999 60.6906 19.4029 60.9375 18.7812 60.9375C18.1596 60.9375 17.5635 60.6906 17.124 60.251C16.6844 59.8115 16.4375 59.2154 16.4375 58.5938V25.7812C16.4375 25.1596 16.6844 24.5635 17.124 24.124C17.5635 23.6844 18.1596 23.4375 18.7812 23.4375V23.4375ZM30.5 23.4375C31.1216 23.4375 31.7177 23.6844 32.1573 24.124C32.5968 24.5635 32.8438 25.1596 32.8438 25.7812V58.5938C32.8438 59.2154 32.5968 59.8115 32.1573 60.251C31.7177 60.6906 31.1216 60.9375 30.5 60.9375C29.8784 60.9375 29.2823 60.6906 28.8427 60.251C28.4032 59.8115 28.1562 59.2154 28.1562 58.5938V25.7812C28.1562 25.1596 28.4032 24.5635 28.8427 24.124C29.2823 23.6844 29.8784 23.4375 30.5 23.4375V23.4375ZM44.5625 25.7812V58.5938C44.5625 59.2154 44.3156 59.8115 43.876 60.251C43.4365 60.6906 42.8404 60.9375 42.2188 60.9375C41.5971 60.9375 41.001 60.6906 40.5615 60.251C40.1219 59.8115 39.875 59.2154 39.875 58.5938V25.7812C39.875 25.1596 40.1219 24.5635 40.5615 24.124C41.001 23.6844 41.5971 23.4375 42.2188 23.4375C42.8404 23.4375 43.4365 23.6844 43.876 24.124C44.3156 24.5635 44.5625 25.1596 44.5625 25.7812V25.7812Z" fill="#FE0000"/>
</svg>
